HIERARCHY
ROOT Hips
{
	OFFSET 0.000000 71.427986 0.000000
	CHANNELS 6 Xposition Yposition Zposition Xrotation Yrotation Zrotation
	JOINT Pelvis
	{
		OFFSET 0.000000 0.000000 0.000000
		CHANNELS 3 Xrotation Yrotation Zrotation
		JOINT LeftUpLeg
		{
			OFFSET 6.797100 -2.508499 -1.318700
			CHANNELS 3 Xrotation Yrotation Zrotation
			JOINT LeftLeg
			{
				OFFSET 0.069008 -29.241863 0.690200
				CHANNELS 3 Xrotation Yrotation Zrotation
				JOINT LeftFoot
				{
					OFFSET -0.069008 -29.568123 -0.266800
					CHANNELS 3 Xrotation Yrotation Zrotation
					JOINT LeftToeBase
					{
						OFFSET 3.145500 -8.631000 16.059900
						CHANNELS 3 Xrotation Yrotation Zrotation
						End Site
						{
							OFFSET 0.000000 18.501587 0.000000
						}
					}
				}
			}
			JOINT Left_ShortSleeve
			{
				OFFSET 0.265923 -10.480953 1.153800
				CHANNELS 3 Xrotation Yrotation Zrotation
				End Site
				{
					OFFSET 1.725763 19.823879 0.000000
				}
			}
		}
		JOINT RightUpLeg
		{
			OFFSET -6.797100 -2.508499 -1.318700
			CHANNELS 3 Xrotation Yrotation Zrotation
			JOINT RightLeg
			{
				OFFSET -0.082453 -29.241932 0.688000
				CHANNELS 3 Xrotation Yrotation Zrotation
				JOINT RightFoot
				{
					OFFSET 0.082453 -29.568058 -0.264600
					CHANNELS 3 Xrotation Yrotation Zrotation
					JOINT RightToeBase
					{
						OFFSET -3.115300 -8.682800 16.113400
						CHANNELS 3 Xrotation Yrotation Zrotation
						End Site
						{
							OFFSET 0.000000 18.567114 0.000000
						}
					}
				}
			}
			JOINT Right_ShortSleeve
			{
				OFFSET -0.265923 -10.480953 1.153800
				CHANNELS 3 Xrotation Yrotation Zrotation
				End Site
				{
					OFFSET -1.725766 19.823910 0.000000
				}
			}
		}
	}
	JOINT Spine
	{
		OFFSET 0.000000 13.368103 0.470500
		CHANNELS 3 Xrotation Yrotation Zrotation
		JOINT Spine1
		{
			OFFSET 0.147000 13.837402 0.538800
			CHANNELS 3 Xrotation Yrotation Zrotation
			JOINT Spine2
			{
				OFFSET 0.168000 16.242897 -1.435500
				CHANNELS 3 Xrotation Yrotation Zrotation
				JOINT Neck
				{
					OFFSET 0.217200 18.631500 -1.679100
					CHANNELS 3 Xrotation Yrotation Zrotation
					JOINT Head
					{
						OFFSET 0.000000 6.599396 1.385900
						CHANNELS 3 Xrotation Yrotation Zrotation
						JOINT Hat
						{
							OFFSET -0.532200 27.220596 -10.096100
							CHANNELS 3 Xrotation Yrotation Zrotation
							End Site
							{
								OFFSET 0.000000 22.029861 0.000000
							}
						}
						JOINT HairD
						{
							OFFSET -10.777400 17.437393 -1.325900
							CHANNELS 3 Xrotation Yrotation Zrotation
							JOINT HairD1
							{
								OFFSET -3.290299 -11.051193 1.062200
								CHANNELS 3 Xrotation Yrotation Zrotation
								End Site
								{
									OFFSET 0.000000 11.579437 0.000000
								}
							}
						}
						JOINT HairB
						{
							OFFSET -10.777400 17.437393 1.467900
							CHANNELS 3 Xrotation Yrotation Zrotation
							JOINT HairB1
							{
								OFFSET -1.561200 -12.956299 3.590200
								CHANNELS 3 Xrotation Yrotation Zrotation
								End Site
								{
									OFFSET 0.000000 13.534866 0.000000
								}
							}
						}
						JOINT HairA
						{
							OFFSET 9.713100 17.437393 1.467900
							CHANNELS 3 Xrotation Yrotation Zrotation
							JOINT HairA1
							{
								OFFSET 1.561200 -12.956299 3.590200
								CHANNELS 3 Xrotation Yrotation Zrotation
								End Site
								{
									OFFSET 0.000000 13.534866 0.000000
								}
							}
						}
						JOINT HairC
						{
							OFFSET 9.713100 17.437393 -1.325900
							CHANNELS 3 Xrotation Yrotation Zrotation
							JOINT HairC1
							{
								OFFSET 3.290300 -11.051193 1.062200
								CHANNELS 3 Xrotation Yrotation Zrotation
								End Site
								{
									OFFSET 0.000000 11.579437 0.000000
								}
							}
						}
					}
				}
				JOINT LeftShoulder
				{
					OFFSET 5.101800 15.108002 -2.763700
					CHANNELS 3 Xrotation Yrotation Zrotation
					JOINT LeftArm
					{
						OFFSET 9.825497 2.506317 -1.597400
						CHANNELS 3 Xrotation Yrotation Zrotation
						JOINT LeftForeArm
						{
							OFFSET 21.966244 0.000000 0.000000
							CHANNELS 3 Xrotation Yrotation Zrotation
							JOINT LeftHand
							{
								OFFSET 33.879036 0.000000 0.000000
								CHANNELS 3 Xrotation Yrotation Zrotation
								JOINT LeftHandThumb1
								{
									OFFSET 6.715286 -2.359680 3.363841
									CHANNELS 3 Xrotation Yrotation Zrotation
									JOINT LeftHandThumb2
									{
										OFFSET 2.507072 -1.447464 1.447461
										CHANNELS 3 Xrotation Yrotation Zrotation
										JOINT LeftHandThumb3
										{
											OFFSET 2.898338 -1.673355 1.673357
											CHANNELS 3 Xrotation Yrotation Zrotation
											End Site
											{
												OFFSET -0.295959 3.727692 -0.131651
											}
										}
									}
								}
								JOINT LeftHandIndex1
								{
									OFFSET 14.190811 -0.254547 3.840278
									CHANNELS 3 Xrotation Yrotation Zrotation
									JOINT LeftHandIndex2
									{
										OFFSET 3.551727 0.000000 -0.000000
										CHANNELS 3 Xrotation Yrotation Zrotation
										JOINT LeftHandIndex3
										{
											OFFSET 2.894196 0.000000 0.000000
											CHANNELS 3 Xrotation Yrotation Zrotation
											End Site
											{
												OFFSET -1.000603 2.690872 0.366626
											}
										}
									}
								}
								JOINT LeftHandMiddle1
								{
									OFFSET 13.776489 0.000000 0.000000
									CHANNELS 3 Xrotation Yrotation Zrotation
									JOINT LeftHandMiddle2
									{
										OFFSET 3.438232 0.000000 0.000000
										CHANNELS 3 Xrotation Yrotation Zrotation
										JOINT LeftHandMiddle3
										{
											OFFSET 3.691551 0.000000 0.000000
											CHANNELS 3 Xrotation Yrotation Zrotation
											End Site
											{
												OFFSET -1.082298 3.499527 0.457670
											}
										}
									}
								}
								JOINT LeftHandRing1
								{
									OFFSET 13.966164 -0.268127 -3.067488
									CHANNELS 3 Xrotation Yrotation Zrotation
									JOINT LeftHandRing2
									{
										OFFSET 3.162567 0.000000 0.000000
										CHANNELS 3 Xrotation Yrotation Zrotation
										JOINT LeftHandRing3
										{
											OFFSET 3.324348 0.000000 0.000000
											CHANNELS 3 Xrotation Yrotation Zrotation
											End Site
											{
												OFFSET -0.861900 3.184998 0.405154
											}
										}
									}
								}
								JOINT LeftHandPinky1
								{
									OFFSET 13.131393 -0.168503 -5.746925
									CHANNELS 3 Xrotation Yrotation Zrotation
									JOINT LeftHandPinky2
									{
										OFFSET 2.849182 0.000000 0.000000
										CHANNELS 3 Xrotation Yrotation Zrotation
										JOINT LeftHandPinky3
										{
											OFFSET 2.805038 0.000000 0.000000
											CHANNELS 3 Xrotation Yrotation Zrotation
											End Site
											{
												OFFSET -0.882500 2.642609 0.325652
											}
										}
									}
								}
							}
							JOINT Left_Sleeve
							{
								OFFSET 6.592125 -0.646545 0.805568
								CHANNELS 3 Xrotation Yrotation Zrotation
								End Site
								{
									OFFSET -0.000179 20.275787 -0.000000
								}
							}
						}
					}
				}
				JOINT RightShoulder
				{
					OFFSET -5.731700 15.108002 -2.763700
					CHANNELS 3 Xrotation Yrotation Zrotation
					JOINT RightArm
					{
						OFFSET -9.825497 2.506317 -1.597400
						CHANNELS 3 Xrotation Yrotation Zrotation
						JOINT RightForeArm
						{
							OFFSET -21.966242 0.000000 0.000000
							CHANNELS 3 Xrotation Yrotation Zrotation
							JOINT RightHand
							{
								OFFSET -33.879032 0.000000 0.000000
								CHANNELS 3 Xrotation Yrotation Zrotation
								JOINT RightHandThumb1
								{
									OFFSET -6.715286 -2.359680 3.363841
									CHANNELS 3 Xrotation Yrotation Zrotation
									JOINT RightHandThumb2
									{
										OFFSET -2.507072 -1.447464 1.447461
										CHANNELS 3 Xrotation Yrotation Zrotation
										JOINT RightHandThumb3
										{
											OFFSET -2.898338 -1.673355 1.673357
											CHANNELS 3 Xrotation Yrotation Zrotation
											End Site
											{
												OFFSET 0.295959 3.727692 -0.131651
											}
										}
									}
								}
								JOINT RightHandIndex1
								{
									OFFSET -14.190811 -0.254547 3.840278
									CHANNELS 3 Xrotation Yrotation Zrotation
									JOINT RightHandIndex2
									{
										OFFSET -3.551727 0.000000 -0.000000
										CHANNELS 3 Xrotation Yrotation Zrotation
										JOINT RightHandIndex3
										{
											OFFSET -2.894196 0.000000 0.000000
											CHANNELS 3 Xrotation Yrotation Zrotation
											End Site
											{
												OFFSET 1.000603 2.690872 0.366626
											}
										}
									}
								}
								JOINT RightHandMiddle1
								{
									OFFSET -13.776489 0.000000 0.000000
									CHANNELS 3 Xrotation Yrotation Zrotation
									JOINT RightHandMiddle2
									{
										OFFSET -3.438232 0.000000 0.000000
										CHANNELS 3 Xrotation Yrotation Zrotation
										JOINT RightHandMiddle3
										{
											OFFSET -3.691551 0.000000 0.000000
											CHANNELS 3 Xrotation Yrotation Zrotation
											End Site
											{
												OFFSET 1.082298 3.499527 0.457670
											}
										}
									}
								}
								JOINT RightHandRing1
								{
									OFFSET -13.966164 -0.268127 -3.067488
									CHANNELS 3 Xrotation Yrotation Zrotation
									JOINT RightHandRing2
									{
										OFFSET -3.162567 0.000000 0.000000
										CHANNELS 3 Xrotation Yrotation Zrotation
										JOINT RightHandRing3
										{
											OFFSET -3.324348 0.000000 0.000000
											CHANNELS 3 Xrotation Yrotation Zrotation
											End Site
											{
												OFFSET 0.861900 3.184998 0.405154
											}
										}
									}
								}
								JOINT RightHandPinky1
								{
									OFFSET -13.131393 -0.168503 -5.746925
									CHANNELS 3 Xrotation Yrotation Zrotation
									JOINT RightHandPinky2
									{
										OFFSET -2.849182 0.000000 0.000000
										CHANNELS 3 Xrotation Yrotation Zrotation
										JOINT RightHandPinky3
										{
											OFFSET -2.805038 0.000000 0.000000
											CHANNELS 3 Xrotation Yrotation Zrotation
											End Site
											{
												OFFSET 0.882500 2.642609 0.325652
											}
										}
									}
								}
							}
							JOINT Right_Sleeve
							{
								OFFSET -6.592125 -0.646545 0.805568
								CHANNELS 3 Xrotation Yrotation Zrotation
								End Site
								{
									OFFSET 0.000179 20.275787 -0.000000
								}
							}
						}
					}
				}
				JOINT Bind_Right_JacketString
				{
					OFFSET -3.534800 11.969597 7.200700
					CHANNELS 3 Xrotation Yrotation Zrotation
					JOINT Bind_Right_JacketString1
					{
						OFFSET -0.319900 -6.102600 2.794100
						CHANNELS 3 Xrotation Yrotation Zrotation
						End Site
						{
							OFFSET 0.000000 6.719452 0.000000
						}
					}
				}
				JOINT Bind_Left_JacketString
				{
					OFFSET 2.904800 11.969597 7.200700
					CHANNELS 3 Xrotation Yrotation Zrotation
					JOINT Bind_Left_JacketString1
					{
						OFFSET 0.364800 -5.904503 3.186800
						CHANNELS 3 Xrotation Yrotation Zrotation
						End Site
						{
							OFFSET 0.000000 6.719513 0.000000
						}
					}
				}
				JOINT HairE
				{
					OFFSET 5.915200 17.612701 -11.592200
					CHANNELS 3 Xrotation Yrotation Zrotation
					JOINT HairE1
					{
						OFFSET 0.289200 -7.171898 -1.284500
						CHANNELS 3 Xrotation Yrotation Zrotation
						End Site
						{
							OFFSET 0.000000 7.291756 0.000000
						}
					}
				}
				JOINT HairF
				{
					OFFSET -0.864800 17.612701 -11.592200
					CHANNELS 3 Xrotation Yrotation Zrotation
					JOINT HairF1
					{
						OFFSET 0.000000 -14.087097 -2.127501
						CHANNELS 3 Xrotation Yrotation Zrotation
						End Site
						{
							OFFSET 0.000000 14.246841 0.000000
						}
					}
				}
				JOINT HairG
				{
					OFFSET -8.087700 17.612701 -11.592200
					CHANNELS 3 Xrotation Yrotation Zrotation
					JOINT HairG1
					{
						OFFSET -0.293600 -6.081398 -0.910100
						CHANNELS 3 Xrotation Yrotation Zrotation
						End Site
						{
							OFFSET 0.000000 6.156120 0.000000
						}
					}
				}
			}
		}
	}
	JOINT Pouch
	{
		OFFSET 0.000000 4.394501 10.847300
		CHANNELS 3 Xrotation Yrotation Zrotation
		End Site
		{
			OFFSET 0.000000 21.880577 0.000000
		}
	}
	JOINT Bag
	{
		OFFSET -13.229000 4.813004 -0.593300
		CHANNELS 3 Xrotation Yrotation Zrotation
		End Site
		{
			OFFSET 0.000000 21.880577 0.000000
		}
	}
	JOINT OccupyGuyFacialAnim_Joint
	{
		OFFSET 1.000000 -70.206398 -1.655000
		CHANNELS 3 Xrotation Yrotation Zrotation
		End Site
		{
			OFFSET 0.000000 21.880577 0.000000
		}
	}
}
MOTION
Frames: 4
Frame Time: 0.016667
-0.989393 66.541412 0.929635 -6.079197 -42.950955 -4.014733 0.000000 0.000000 0.000000 -24.821599 6.640515 14.299366 34.935663 -16.616402 -0.585217 -7.730146 2.388450 -6.934893 0.000000 -0.000000 0.000000 0.000002 0.000000 -0.000000 -2.884531 -14.304855 -14.526791 34.216540 -8.758560 -0.403346 -23.649713 -4.500704 16.697559 -0.000000 0.000000 0.000000 -0.000000 0.000003 -0.000001 5.833058 4.561447 -1.233606 11.836802 9.036872 -3.086776 11.836808 9.036860 -3.086779 -4.023272 -0.974177 0.382903 -6.479892 20.161243 -0.594156 -0.000000 0.000000 -0.000000 -0.000000 0.000000 -0.000000 -0.000000 0.000000 -0.000000 -0.000000 0.000000 -0.000000 -0.000000 -0.000000 -0.000000 -0.000000 0.000000 -0.000000 -0.000000 -0.000000 -0.000000 -0.000000 0.000000 -0.000000 -0.000000 0.000000 -0.000000 1.392490 -0.696037 -7.877868 -14.270851 2.385509 -63.280746 9.855328 -47.499338 5.919333 16.172172 0.901947 18.796315 9.163401 4.814185 -5.498991 -0.335218 0.032287 0.783663 0.000002 0.000001 -0.000001 -0.901993 -6.980946 -3.808324 0.033592 0.804076 -16.418740 -0.000004 -0.000001 -0.000000 1.947922 9.683075 -14.539685 -0.463665 -1.564321 -21.881319 0.000002 -0.000001 0.000002 2.605964 14.896796 -31.345176 -0.576890 -2.712549 -32.011423 -0.000001 0.000001 -0.000001 4.170689 18.495005 -34.987248 -0.707108 -5.788794 -39.372817 -0.000001 0.000000 0.000003 0.000002 0.000001 -0.000001 1.409763 9.464719 9.801438 1.234153 -24.280856 60.535523 -6.660164 41.889000 8.039883 6.224108 12.306678 11.672645 -8.895698 -4.903131 -0.383767 7.905237 -19.193009 -2.856833 -0.000000 -0.000001 0.000002 -1.085602 -1.215461 4.525560 0.141677 -1.113988 16.942810 -0.000001 -0.000001 -0.000000 -0.663701 -2.903878 12.731731 -0.661485 1.814906 30.579037 -0.000000 0.000003 -0.000000 2.423541 -7.404531 21.763322 -0.989847 3.764220 37.431223 -0.000000 0.000002 0.000001 3.480945 -10.055083 24.322577 -1.458328 7.871965 41.091982 -0.000001 0.000001 0.000001 0.000001 -0.000000 0.000003 0.000002 0.000002 -0.000000 0.000000 -0.000002 -0.000000 0.000002 0.000002 -0.000000 0.000002 0.000002 -0.000000 0.000002 0.000002 -0.000000 0.000000 -0.000002 0.000000 0.000002 0.000002 -0.000000 0.000002 0.000002 -0.000000 0.000002 0.000002 -0.000000 0.000000 -0.000002 0.000000 0.000000 0.000000 0.000000 0.000000 0.000000 0.000000 0.000000 0.000000 0.000000 
-0.934373 66.451935 0.628752 -4.763464 -41.658178 -3.680037 -0.000000 0.000000 0.000000 -27.010675 7.308671 14.605200 35.452882 -14.870316 0.579169 -6.867713 0.688634 -7.069928 0.000000 -0.000001 0.000000 0.000001 0.000000 0.000001 -3.768516 -14.387100 -13.902840 34.912068 -8.480515 -0.190951 -23.992187 -4.456770 16.656007 0.000000 0.000000 0.000000 -0.000001 0.000002 -0.000000 5.877061 4.477760 -1.158185 11.918894 8.877115 -2.961023 11.918897 8.877111 -2.961024 -4.393511 -1.244333 0.135177 -6.869574 19.864931 -0.425489 0.000001 0.000000 0.000000 0.000001 0.000000 0.000000 0.000001 0.000000 0.000000 0.000001 0.000000 0.000000 0.000001 0.000000 0.000000 0.000001 0.000000 0.000000 0.000001 0.000000 0.000000 0.000001 0.000000 0.000000 0.000001 0.000000 0.000000 1.570206 -1.339773 -7.270730 -11.927839 2.709226 -62.623839 11.392371 -50.094909 6.156070 15.214484 1.370649 16.884542 9.193337 5.062695 -5.652788 -0.335218 0.032313 0.783653 -0.000000 -0.000000 0.000001 -0.796941 -6.938163 -3.289536 0.025949 0.778733 -16.637002 0.000003 0.000002 -0.000002 1.901937 9.733005 -14.095519 -0.466261 -1.570614 -21.943786 0.000003 -0.000000 0.000001 2.724079 14.868084 -31.650431 -0.590207 -2.733308 -32.416477 0.000001 0.000001 0.000001 4.123979 18.303034 -35.054013 -0.711776 -5.794187 -39.703985 -0.000002 -0.000002 0.000004 0.000003 0.000001 -0.000002 1.547678 9.347144 9.092338 0.556988 -22.906436 60.241353 -3.542695 42.903902 5.840096 7.677643 11.184452 10.633552 -8.650338 -5.353431 -1.233089 7.621894 -18.559350 -2.849210 -0.000001 0.000000 0.000000 -1.069538 -1.687651 5.364288 0.057427 -0.857525 19.622013 -0.000000 0.000000 0.000000 -0.869351 -2.826908 14.623763 -0.785357 2.015683 33.206075 0.000001 -0.000001 -0.000001 2.549542 -6.904354 24.300642 -1.124983 3.934994 39.943943 0.000001 -0.000000 -0.000005 3.462090 -9.593476 26.501018 -1.572227 7.998006 43.304342 0.000001 0.000001 0.000001 -0.000001 -0.000001 0.000001 0.000001 0.000000 -0.000001 0.000003 0.000002 -0.000002 0.000001 0.000000 0.000000 0.000001 0.000000 0.000000 0.000001 0.000000 -0.000001 0.000003 0.000002 -0.000001 0.000001 0.000000 0.000000 0.000001 0.000000 0.000000 0.000001 0.000000 -0.000001 0.000003 0.000002 -0.000001 -0.000000 0.000000 0.000000 -0.000000 0.000000 0.000000 -0.000000 0.000000 0.000000 
-0.882612 66.329109 0.282176 -3.370278 -40.367712 -3.490264 -0.000000 0.000001 0.000000 -29.397551 7.605795 15.239984 35.870326 -12.640013 1.376564 -5.953003 -1.183527 -7.264795 -0.000000 -0.000003 0.000000 -0.000000 -0.000001 -0.000000 -5.071223 -15.324545 -12.835472 35.738972 -7.677835 -1.154200 -24.243353 -4.484514 16.948034 -0.000000 0.000001 -0.000000 0.000001 0.000001 0.000000 5.923335 4.382897 -1.051585 12.004172 8.695474 -2.784136 12.004167 8.695490 -2.784138 -4.402253 -1.432520 -0.308002 -7.743045 19.546101 -0.146669 0.000001 0.000000 -0.000000 0.000001 0.000000 -0.000000 0.000001 0.000000 -0.000000 0.000001 0.000000 -0.000000 -0.000001 0.000000 -0.000000 0.000001 0.000000 -0.000000 -0.000001 0.000000 -0.000000 0.000001 0.000000 -0.000000 0.000001 0.000000 -0.000000 1.744174 -1.717845 -6.596196 -9.656330 2.899150 -62.029299 12.853462 -52.487057 6.201655 14.224879 1.951102 15.624065 9.323756 5.688847 -5.949667 -0.335215 0.032311 0.783673 0.000001 0.000001 -0.000001 -0.782984 -6.833236 -3.456149 0.013097 0.736798 -16.998790 0.000001 0.000002 0.000002 1.951598 9.750303 -14.576706 -0.472454 -1.585725 -22.093642 0.000002 0.000001 -0.000003 3.028777 14.536804 -33.148438 -0.631081 -2.795161 -33.635724 -0.000003 0.000001 0.000001 4.069969 17.795428 -35.410901 -0.726087 -5.810330 -40.707473 0.000000 -0.000003 0.000001 0.000003 -0.000000 0.000000 1.665579 8.672809 8.386896 -0.517103 -21.343890 59.835066 -0.867262 43.424044 3.841161 9.539181 9.854835 10.594286 -8.424794 -5.710900 -1.809452 7.405771 -18.074639 -2.841191 0.000000 -0.000001 -0.000001 -1.037041 -2.082859 6.381578 -0.021292 -0.648454 21.839554 -0.000000 -0.000000 -0.000003 -1.065007 -2.741167 16.363928 -0.904110 2.190636 35.561124 0.000000 0.000001 0.000001 2.642174 -6.487989 26.411331 -1.248708 4.078754 42.132889 0.000003 -0.000001 0.000000 3.458234 -9.126076 28.634627 -1.708307 8.136578 45.833441 -0.000002 -0.000001 0.000000 0.000001 -0.000001 0.000001 0.000001 -0.000000 -0.000000 0.000001 0.000002 -0.000001 0.000001 -0.000000 -0.000000 0.000001 -0.000000 -0.000000 0.000001 -0.000000 -0.000000 0.000001 0.000002 -0.000001 0.000001 -0.000000 -0.000000 0.000001 -0.000000 -0.000000 0.000001 -0.000000 -0.000000 0.000001 0.000002 -0.000001 -0.000000 0.000001 0.000000 -0.000000 0.000001 0.000000 -0.000000 0.000001 0.000000 
-0.846869 66.168854 -0.107896 -1.927362 -39.080338 -3.375805 -0.000000 0.000002 -0.000000 -32.011860 7.987940 16.115937 36.206112 -10.195473 2.044983 -5.034548 -3.317863 -7.435681 -0.000000 0.000001 -0.000000 0.000004 0.000002 0.000000 -6.581753 -16.434033 -11.574165 36.810669 -6.815157 -2.494266 -24.556096 -4.537776 17.349114 -0.000000 0.000002 -0.000000 -0.000001 0.000002 -0.000000 5.973254 4.281133 -0.941571 12.097060 8.496694 -2.607073 12.097067 8.496700 -2.607072 -4.402071 -1.602830 -0.704802 -8.692098 19.262911 0.109188 0.000002 0.000000 0.000000 0.000002 0.000000 0.000000 0.000002 0.000000 0.000000 0.000002 0.000000 0.000000 0.000002 0.000000 0.000000 0.000002 0.000000 0.000000 0.000002 0.000000 0.000000 0.000002 0.000000 0.000000 0.000002 0.000000 0.000000 1.920550 -2.204490 -5.946349 -7.362911 3.228186 -61.378245 14.333910 -54.674039 6.292066 13.459748 1.934181 13.988641 9.552668 6.521022 -6.281345 -0.335193 0.032292 0.783662 0.000002 0.000002 -0.000002 -0.845284 -6.711940 -4.125700 -0.007799 0.670574 -17.571683 0.000003 0.000003 -0.000003 2.022870 9.683093 -15.641244 -0.484467 -1.614725 -22.381756 0.000001 0.000002 -0.000003 3.325909 14.067959 -34.924516 -0.685064 -2.872675 -35.188820 -0.000002 0.000000 -0.000002 4.168843 17.353808 -36.084009 -0.747006 -5.832949 -42.138640 -0.000002 -0.000002 0.000003 0.000003 0.000001 0.000001 1.789078 8.381569 7.651967 -1.251873 -20.026743 59.610578 1.393149 43.948535 1.818026 11.192226 8.642880 11.211499 -7.961406 -5.906363 -2.217053 7.208778 -17.631835 -2.832165 0.000000 -0.000001 0.000001 -0.983918 -2.462988 7.369488 -0.096625 -0.468440 23.776565 -0.000000 0.000001 0.000004 -1.250096 -2.657364 17.910315 -1.020512 2.348289 37.744233 -0.000001 -0.000000 0.000003 2.681781 -6.018238 28.379877 -1.362742 4.201920 44.070539 0.000002 -0.000000 -0.000006 3.439289 -8.676260 30.575274 -1.840092 8.259784 48.182979 -0.000000 0.000000 0.000001 0.000001 -0.000001 0.000002 -0.000001 -0.000001 -0.000001 -0.000001 -0.000000 -0.000000 -0.000001 -0.000001 -0.000001 -0.000001 -0.000001 -0.000001 -0.000001 -0.000001 -0.000001 -0.000001 -0.000000 -0.000000 -0.000001 -0.000001 -0.000001 -0.000001 -0.000001 -0.000001 -0.000001 -0.000001 -0.000001 -0.000001 -0.000000 -0.000000 -0.000000 0.000002 -0.000000 -0.000000 0.000002 -0.000000 -0.000000 0.000002 -0.000000 
